<mxfile host="app.diagrams.net" modified="2021-12-03T09:16:10.229Z" agent="5.0 (Windows NT 10.0; Win64; x64) AppleWebKit/537.36 (KHTML, like Gecko) Chrome/96.0.4664.45 Safari/537.36" etag="xuZN5fXo-z_lzrkIjwOf" version="15.8.9" type="github">
  <diagram id="IC3ZQei9TfHBi2FQQB53" name="Page-1">
    <mxGraphModel dx="761" dy="399" grid="1" gridSize="10" guides="1" tooltips="1" connect="1" arrows="1" fold="1" page="1" pageScale="1" pageWidth="827" pageHeight="1169" math="0" shadow="0">
      <root>
        <mxCell id="0" />
        <mxCell id="1" parent="0" />
        <mxCell id="_3rJQGCCfjA62qKBPhht-3" value="" style="rounded=0;whiteSpace=wrap;html=1;" vertex="1" parent="1">
          <mxGeometry x="120" y="240" width="570" height="300" as="geometry" />
        </mxCell>
        <mxCell id="_3rJQGCCfjA62qKBPhht-4" value="&lt;font style=&quot;font-size: 18px&quot;&gt;&amp;nbsp; &amp;nbsp;交互层&lt;/font&gt;" style="rounded=0;whiteSpace=wrap;html=1;strokeColor=#00994D;align=left;" vertex="1" parent="1">
          <mxGeometry x="140" y="260" width="490" height="50" as="geometry" />
        </mxCell>
        <mxCell id="_3rJQGCCfjA62qKBPhht-5" value="&lt;font style=&quot;font-size: 18px&quot;&gt;&amp;nbsp; &amp;nbsp;业务层&lt;/font&gt;" style="rounded=0;whiteSpace=wrap;html=1;strokeColor=#990000;align=left;" vertex="1" parent="1">
          <mxGeometry x="140" y="330" width="490" height="50" as="geometry" />
        </mxCell>
        <mxCell id="_3rJQGCCfjA62qKBPhht-6" value="&lt;font style=&quot;font-size: 18px&quot;&gt;&amp;nbsp; &amp;nbsp;算法层&lt;/font&gt;" style="rounded=0;whiteSpace=wrap;html=1;strokeColor=#CC00CC;align=left;" vertex="1" parent="1">
          <mxGeometry x="140" y="400" width="490" height="50" as="geometry" />
        </mxCell>
        <mxCell id="_3rJQGCCfjA62qKBPhht-7" value="&lt;font style=&quot;font-size: 18px&quot;&gt;&amp;nbsp; &amp;nbsp;数据层&lt;/font&gt;" style="rounded=0;whiteSpace=wrap;html=1;strokeColor=#CCCC00;align=left;" vertex="1" parent="1">
          <mxGeometry x="140" y="470" width="490" height="50" as="geometry" />
        </mxCell>
        <mxCell id="_3rJQGCCfjA62qKBPhht-21" value="结构化数据" style="rounded=0;whiteSpace=wrap;html=1;fontSize=18;strokeColor=#000000;strokeWidth=1;" vertex="1" parent="1">
          <mxGeometry x="250" y="481.25" width="130" height="27.5" as="geometry" />
        </mxCell>
        <mxCell id="_3rJQGCCfjA62qKBPhht-22" value="非结构化数据" style="rounded=0;whiteSpace=wrap;html=1;fontSize=18;strokeColor=#000000;strokeWidth=1;" vertex="1" parent="1">
          <mxGeometry x="410" y="481.25" width="150" height="27.5" as="geometry" />
        </mxCell>
        <mxCell id="_3rJQGCCfjA62qKBPhht-23" value="文本解析" style="rounded=0;whiteSpace=wrap;html=1;fontSize=18;strokeColor=#000000;strokeWidth=1;" vertex="1" parent="1">
          <mxGeometry x="250" y="411.25" width="90" height="27.5" as="geometry" />
        </mxCell>
        <mxCell id="_3rJQGCCfjA62qKBPhht-24" value="语义匹配" style="rounded=0;whiteSpace=wrap;html=1;fontSize=18;strokeColor=#000000;strokeWidth=1;" vertex="1" parent="1">
          <mxGeometry x="370" y="411.25" width="90" height="27.5" as="geometry" />
        </mxCell>
        <mxCell id="_3rJQGCCfjA62qKBPhht-25" value="搜索" style="rounded=0;whiteSpace=wrap;html=1;fontSize=18;strokeColor=#000000;strokeWidth=1;" vertex="1" parent="1">
          <mxGeometry x="490" y="411.25" width="70" height="27.5" as="geometry" />
        </mxCell>
        <mxCell id="_3rJQGCCfjA62qKBPhht-26" value="客诉" style="rounded=0;whiteSpace=wrap;html=1;fontSize=18;strokeColor=#000000;strokeWidth=1;" vertex="1" parent="1">
          <mxGeometry x="250" y="341.25" width="50" height="27.5" as="geometry" />
        </mxCell>
        <mxCell id="_3rJQGCCfjA62qKBPhht-27" value="常规解析" style="rounded=0;whiteSpace=wrap;html=1;fontSize=18;strokeColor=#000000;strokeWidth=1;" vertex="1" parent="1">
          <mxGeometry x="320" y="341.25" width="80" height="27.5" as="geometry" />
        </mxCell>
        <mxCell id="_3rJQGCCfjA62qKBPhht-28" value="" style="rounded=0;whiteSpace=wrap;html=1;fontSize=18;strokeColor=#000000;strokeWidth=1;" vertex="1" parent="1">
          <mxGeometry x="420" y="341.25" width="70" height="27.5" as="geometry" />
        </mxCell>
        <mxCell id="_3rJQGCCfjA62qKBPhht-29" value="流程控制" style="rounded=0;whiteSpace=wrap;html=1;fontSize=18;strokeColor=#000000;strokeWidth=1;" vertex="1" parent="1">
          <mxGeometry x="250" y="271.25" width="100" height="27.5" as="geometry" />
        </mxCell>
        <mxCell id="_3rJQGCCfjA62qKBPhht-30" value="图表展示" style="rounded=0;whiteSpace=wrap;html=1;fontSize=18;strokeColor=#000000;strokeWidth=1;" vertex="1" parent="1">
          <mxGeometry x="370" y="271.25" width="100" height="27.5" as="geometry" />
        </mxCell>
      </root>
    </mxGraphModel>
  </diagram>
</mxfile>
